# Blender v2.79 (sub 0) OBJ File: 'untitled.blend'
# www.blender.org
v -4.000000 0.000000 4.000000
v 4.000000 0.000000 4.000000
v -4.000000 0.000000 -4.000000
v 4.000000 0.000000 -4.000000
v -2.000000 2.000000 2.000000
v -2.000000 2.400000 2.000000
v -2.000000 2.000000 -2.000000
v -2.000000 2.400000 -2.000000
v 2.000000 2.000000 2.000000
v 2.000000 2.400000 2.000000
v 2.000000 2.000000 -2.000000
v 2.000000 2.400000 -2.000000
v 0.700000 0.000000 -0.700000
v 0.700000 2.000000 -0.700000
v 0.700000 0.000000 -1.300000
v 0.700000 2.000000 -1.300000
v 1.300000 0.000000 -0.700000
v 1.300000 2.000000 -0.700000
v 1.300000 0.000000 -1.300000
v 1.300000 2.000000 -1.300000
v -1.300000 0.000000 -0.700000
v -1.300000 2.000000 -0.700000
v -1.300000 0.000000 -1.300000
v -1.300000 2.000000 -1.300000
v -0.700000 0.000000 -0.700000
v -0.700000 2.000000 -0.700000
v -0.700000 0.000000 -1.300000
v -0.700000 2.000000 -1.300000
v -1.300000 0.000000 1.300000
v -1.300000 2.000000 1.300000
v -1.300000 0.000000 0.700000
v -1.300000 2.000000 0.700000
v -0.700000 0.000000 1.300000
v -0.700000 2.000000 1.300000
v -0.700000 0.000000 0.700000
v -0.700000 2.000000 0.700000
v 0.700000 0.000000 1.300000
v 0.700000 2.000000 1.300000
v 0.700000 0.000000 0.700000
v 0.700000 2.000000 0.700000
v 1.300000 0.000000 1.300000
v 1.300000 2.000000 1.300000
v 1.300000 0.000000 0.700000
v 1.300000 2.000000 0.700000
vt 0.032113 0.009619
vt 0.940815 0.986474
vt 0.032113 0.986474
vt 0.085631 0.396460
vt 0.775094 0.489412
vt 0.085641 0.489484
vt 0.775823 0.489798
vt 0.086360 0.396846
vt 0.775813 0.396774
vt 0.091072 0.396834
vt 0.780535 0.489786
vt 0.091082 0.489857
vt 0.770785 0.489021
vt 0.081322 0.396069
vt 0.770775 0.395998
vt 0.922218 0.038518
vt 0.055681 0.970045
vt 0.055681 0.038518
vt 0.232558 0.750000
vt 0.000000 0.500000
vt 0.232558 0.500000
vt 0.099084 0.027286
vt 0.287989 0.979739
vt 0.099074 0.979738
vt 0.288749 0.983460
vt 0.099843 0.031008
vt 0.288759 0.031009
vt 0.294152 0.982166
vt 0.105247 0.029714
vt 0.294162 0.029714
vt 0.092205 0.028586
vt 0.281111 0.981039
vt 0.092195 0.981038
vt 0.097688 0.029710
vt 0.286593 0.982162
vt 0.097678 0.982162
vt 0.288279 0.984588
vt 0.099373 0.032136
vt 0.288289 0.032137
vt 0.292857 0.981040
vt 0.103952 0.028588
vt 0.292867 0.028588
vt 0.102165 0.029711
vt 0.291071 0.982164
vt 0.102155 0.982163
vt 0.095634 0.020016
vt 0.284539 0.972469
vt 0.095623 0.972468
vt 0.289675 0.984587
vt 0.100769 0.032135
vt 0.289685 0.032136
vt 0.288937 0.977321
vt 0.100031 0.024869
vt 0.288947 0.024870
vt 0.103293 0.028585
vt 0.292199 0.981038
vt 0.103283 0.981037
vt 0.098715 0.032134
vt 0.287621 0.984586
vt 0.098705 0.984585
vt 0.100501 0.023741
vt 0.289407 0.976193
vt 0.100491 0.976193
vt 0.290333 0.974897
vt 0.101428 0.022445
vt 0.290343 0.022446
vt 0.095710 0.026161
vt 0.284616 0.978613
vt 0.095700 0.978613
vt 0.940815 0.009619
vt 0.775084 0.396389
vt 0.086370 0.489869
vt 0.780525 0.396762
vt 0.081332 0.489093
vt 0.922218 0.970045
vt 0.000000 0.750000
vt 0.288000 0.027287
vt 0.099833 0.983460
vt 0.105237 0.982165
vt 0.281121 0.028587
vt 0.286603 0.029711
vt 0.099363 0.984587
vt 0.103941 0.981039
vt 0.291081 0.029712
vt 0.284549 0.020017
vt 0.100759 0.984587
vt 0.100021 0.977321
vt 0.292209 0.028586
vt 0.287631 0.032135
vt 0.289417 0.023742
vt 0.101417 0.974897
vt 0.284626 0.026162
vn 0.0000 1.0000 0.0000
vn -1.0000 0.0000 0.0000
vn 0.0000 0.0000 -1.0000
vn 1.0000 0.0000 0.0000
vn 0.0000 0.0000 1.0000
vn 0.0000 -1.0000 0.0000
s off
f 2/1/1 3/2/1 1/3/1
f 6/4/2 7/5/2 5/6/2
f 8/7/3 11/8/3 7/9/3
f 12/10/4 9/11/4 11/12/4
f 10/13/5 5/14/5 9/15/5
f 11/16/6 5/17/6 7/18/6
f 8/19/1 10/20/1 12/21/1
f 14/22/2 15/23/2 13/24/2
f 16/25/3 19/26/3 15/27/3
f 20/28/4 17/29/4 19/30/4
f 18/31/5 13/32/5 17/33/5
f 22/34/2 23/35/2 21/36/2
f 24/37/3 27/38/3 23/39/3
f 28/40/4 25/41/4 27/42/4
f 26/43/5 21/44/5 25/45/5
f 30/46/2 31/47/2 29/48/2
f 32/49/3 35/50/3 31/51/3
f 36/52/4 33/53/4 35/54/4
f 34/55/5 29/56/5 33/57/5
f 38/58/2 39/59/2 37/60/2
f 40/61/3 43/62/3 39/63/3
f 44/64/4 41/65/4 43/66/4
f 42/67/5 37/68/5 41/69/5
f 2/1/1 4/70/1 3/2/1
f 6/4/2 8/71/2 7/5/2
f 8/7/3 12/72/3 11/8/3
f 12/10/4 10/73/4 9/11/4
f 10/13/5 6/74/5 5/14/5
f 11/16/6 9/75/6 5/17/6
f 8/19/1 6/76/1 10/20/1
f 14/22/2 16/77/2 15/23/2
f 16/25/3 20/78/3 19/26/3
f 20/28/4 18/79/4 17/29/4
f 18/31/5 14/80/5 13/32/5
f 22/34/2 24/81/2 23/35/2
f 24/37/3 28/82/3 27/38/3
f 28/40/4 26/83/4 25/41/4
f 26/43/5 22/84/5 21/44/5
f 30/46/2 32/85/2 31/47/2
f 32/49/3 36/86/3 35/50/3
f 36/52/4 34/87/4 33/53/4
f 34/55/5 30/88/5 29/56/5
f 38/58/2 40/89/2 39/59/2
f 40/61/3 44/90/3 43/62/3
f 44/64/4 42/91/4 41/65/4
f 42/67/5 38/92/5 37/68/5
